<?xml version="1.0" encoding="UTF-8"?>
<svg width="200px" height="100px" viewBox="0 0 200 100" version="1.1" xmlns="http://www.w3.org/2000/svg" xmlns:xlink="http://www.w3.org/1999/xlink">
    <title>BG-理赔单</title>
    <defs>
        <rect id="path-1" x="0" y="0" width="200" height="100" rx="4"></rect>
        <linearGradient x1="42.7761414%" y1="45.9352583%" x2="61.5622808%" y2="74.8333758%" id="linearGradient-3">
            <stop stop-color="#E8EEFF" offset="0%"></stop>
            <stop stop-color="#FFFFFF" stop-opacity="0" offset="100%"></stop>
        </linearGradient>
        <linearGradient x1="50%" y1="23.3579157%" x2="85.17213%" y2="64.8309737%" id="linearGradient-4">
            <stop stop-color="#FFFFFF" stop-opacity="0" offset="0%"></stop>
            <stop stop-color="#E8EEFF" offset="100%"></stop>
        </linearGradient>
        <path d="M143,42 L195,42 C197.209139,42 199,43.790861 199,46 L199,96 C199,97.6568542 197.656854,99 196,99 L143,99 C140.790861,99 139,97.209139 139,95 L139,46 C139,43.790861 140.790861,42 143,42 Z" id="path-5"></path>
        <linearGradient x1="7.12352948%" y1="-11.2319838%" x2="73.1236925%" y2="87.9097921%" id="linearGradient-7">
            <stop stop-color="#D9E3FF" offset="0%"></stop>
            <stop stop-color="#3C6EF0" offset="100%"></stop>
        </linearGradient>
    </defs>
    <g id="重塑项目-11.12" stroke="none" stroke-width="1" fill="none" fill-rule="evenodd">
        <g id="10.状态" transform="translate(-942.000000, -293.000000)">
            <g id="编组" transform="translate(266.000000, 293.000000)">
                <g id="BG-理赔单" transform="translate(676.000000, 0.000000)">
                    <mask id="mask-2" fill="white">
                        <use xlink:href="#path-1"></use>
                    </mask>
                    <rect stroke="#EEEEEE" x="0.5" y="0.5" width="199" height="99" rx="4"></rect>
                    <path d="M38.4379259,109.322027 C27.2514009,69.9402955 38.9146982,55.3748705 73.4278179,65.6257523 C125.197497,81.002075 161.628672,71.1330307 154.330097,47.9639187 C147.031522,24.7948067 164.556138,1.15583825 181.996557,-9.58914742 C193.623502,-16.7524712 200.667437,-13.8016095 203.128362,-0.736562213 L203.128362,109.322027" id="路径-6" fill="url(#linearGradient-3)" opacity="0.4" mask="url(#mask-2)"></path>
                    <path d="M-27.9904083,63.1744782 C-17.7824105,38.106962 1.58515169,30.8133182 30.1122782,41.2935467 C72.902968,57.0138894 111.277915,29.0372628 122.171207,7.55416641 C133.064499,-13.9289299 128.439624,-39.3903775 108.910911,-45.7557394 C89.382198,-52.1211012 -23.2130062,-56.8087323 -23.2130062,-29.4013044 C-23.2130062,-11.1296857 -24.8054736,19.7289085 -27.9904083,63.1744782 Z" id="路径-7" fill="url(#linearGradient-4)" opacity="0.4" mask="url(#mask-2)" transform="translate(49.971359, 6.265502) rotate(30.000000) translate(-49.971359, -6.265502) "></path>
                    <mask id="mask-6" fill="white">
                        <use xlink:href="#path-5"></use>
                    </mask>
                    <g id="蒙版"></g>
                    <path d="M178.689335,52 C186.381727,59.1636768 195.271859,62.7455152 205.359731,62.7455152 C208.571247,92.1536561 199.701315,107.905151 178.749937,110 C159.625854,107.916905 150.755922,92.1654104 152.140143,62.7455152 C161.410047,62.4177171 170.259777,58.8358787 178.689335,52 Z M172.042872,73.7044843 L169.600999,73.7044843 L169.600999,81.0845901 C169.600999,83.0409961 169.306798,84.6681061 168.718395,85.9659199 C168.135596,87.2609666 167.172286,88.4307484 165.828466,89.4752652 L165.511599,89.7140839 L165.511599,92.0385267 C168.139799,90.3920464 169.905008,88.6487143 170.807225,86.8085304 C171.670216,88.6487143 173.415812,90.3920464 176.044011,92.0385267 L176.044011,89.7140839 C174.573004,88.6293439 173.523685,87.379956 172.896056,85.9659199 C172.367894,84.7608071 172.08495,83.2717603 172.047225,81.4987797 L172.042872,81.0845901 L172.042872,73.7044843 Z M191.048285,81.8981451 L177.632699,81.8981451 L177.632699,91.5736381 L191.048285,91.5736381 L191.048285,81.8981451 Z M187.694389,84.1063657 L187.694389,89.3654175 L180.986596,89.3654175 L180.986596,84.1063657 L187.694389,84.1063657 Z M175.632129,70.2178202 L166.041162,70.2178202 L166.041162,85.0651984 L168.394774,85.0651984 L168.394774,72.4841519 L173.219677,72.4841519 L173.219677,85.0651984 L175.632129,85.0651984 L175.632129,70.2178202 Z M181.692679,74.5180393 L177.985741,74.5180393 L179.75095,77.597926 L176.426473,77.597926 L176.426473,79.8352021 L192.254511,79.8352021 L192.254511,77.597926 L188.900615,77.597926 L190.665823,74.5180393 L186.988305,74.5180393 L186.01744,77.597926 L182.634124,77.597926 L181.692679,74.5180393 Z M186.135121,69.607654 L182.516443,69.607654 L182.516443,71.350986 L176.985456,71.350986 L176.985456,73.5882622 L191.666108,73.5882622 L191.666108,71.350986 L186.135121,71.350986 L186.135121,69.607654 Z" id="形状结合" fill="url(#linearGradient-7)" opacity="0.72" mask="url(#mask-6)"></path>
                </g>
            </g>
        </g>
    </g>
</svg>