<?xml version="1.0" encoding="UTF-8"?>
<svg width="200px" height="100px" viewBox="0 0 200 100" version="1.1" xmlns="http://www.w3.org/2000/svg" xmlns:xlink="http://www.w3.org/1999/xlink">
    <title>BG-快递异常订单</title>
    <defs>
        <rect id="path-1" x="0" y="0" width="200" height="100" rx="4"></rect>
        <linearGradient x1="42.7761414%" y1="45.9352583%" x2="61.5622808%" y2="74.8333758%" id="linearGradient-3">
            <stop stop-color="#FFE8E0" offset="0%"></stop>
            <stop stop-color="#FFFFFF" stop-opacity="0" offset="100%"></stop>
        </linearGradient>
        <linearGradient x1="50%" y1="23.3579157%" x2="85.17213%" y2="64.8309737%" id="linearGradient-4">
            <stop stop-color="#FFFFFF" stop-opacity="0" offset="0%"></stop>
            <stop stop-color="#FFE8E0" offset="100%"></stop>
        </linearGradient>
        <path d="M147,43 L195,43 C197.209139,43 199,44.790861 199,47 L199,96 C199,97.6568542 197.656854,99 196,99 L147,99 C144.790861,99 143,97.209139 143,95 L143,47 C143,44.790861 144.790861,43 147,43 Z" id="path-5"></path>
        <linearGradient x1="0%" y1="0%" x2="100%" y2="90.3692406%" id="linearGradient-7">
            <stop stop-color="#FFA98D" offset="0%"></stop>
            <stop stop-color="#F4521F" offset="100%"></stop>
        </linearGradient>
    </defs>
    <g id="重塑项目-11.12" stroke="none" stroke-width="1" fill="none" fill-rule="evenodd">
        <g id="10.状态" transform="translate(-266.000000, -293.000000)">
            <g id="BG-快递异常订单" transform="translate(266.000000, 293.000000)">
                <mask id="mask-2" fill="white">
                    <use xlink:href="#path-1"></use>
                </mask>
                <rect stroke="#EEEEEE" x="0.5" y="0.5" width="199" height="99" rx="4"></rect>
                <path d="M35.4379259,112.322027 C24.2514009,72.9402955 35.9146982,58.3748705 70.4278179,68.6257523 C122.197497,84.002075 158.628672,74.1330307 151.330097,50.9639187 C144.031522,27.7948067 161.556138,4.15583825 178.996557,-6.58914742 C190.623502,-13.7524712 197.667437,-10.8016095 200.128362,2.26343779 L200.128362,112.322027" id="路径-6" fill="url(#linearGradient-3)" opacity="0.4" mask="url(#mask-2)"></path>
                <path d="M-30.9904083,66.1744782 C-20.7824105,41.106962 -1.41484831,33.8133182 27.1122782,44.2935467 C69.902968,60.0138894 108.277915,32.0372628 119.171207,10.5541664 C130.064499,-10.9289299 125.439624,-36.3903775 105.910911,-42.7557394 C86.382198,-49.1211012 -26.2130062,-53.8087323 -26.2130062,-26.4013044 C-26.2130062,-8.12968573 -27.8054736,22.7289085 -30.9904083,66.1744782 Z" id="路径-7" fill="url(#linearGradient-4)" opacity="0.4" mask="url(#mask-2)" transform="translate(46.971359, 9.265502) rotate(30.000000) translate(-46.971359, -9.265502) "></path>
                <mask id="mask-6" fill="white">
                    <use xlink:href="#path-5"></use>
                </mask>
                <g id="蒙版"></g>
                <path d="M176.54029,69.7776601 C178.656083,76.4179469 184.874303,81.2276232 192.215883,81.2276232 C194.987847,81.2276232 197.599665,80.5419581 199.890986,79.33098 L199.890789,97.2222222 C199.890789,100.413201 197.30399,103 194.113011,103 L159.777778,103 C156.586799,103 154,100.413201 154,97.2222222 L154,71.2222222 C154,70.4244776 154.6467,69.7777778 155.444444,69.7777778 L176.54029,69.7776601 Z M173.329837,90.1818163 L160.348325,90.1818163 L160.18108,90.1915342 C159.467853,90.2749726 158.914238,90.8854979 158.914238,91.6262608 C158.914238,92.3770793 159.482986,92.9941002 160.210213,93.064093 L160.348325,93.0707052 L173.329837,93.0707052 L173.497082,93.0609874 C174.210309,92.9775489 174.763924,92.3670236 174.763924,91.6262608 C174.763924,90.8285161 174.121862,90.1818163 173.329837,90.1818163 Z M168.952848,83.3428141 L160.348325,83.3428141 L160.18108,83.3525319 C159.467853,83.4359704 158.914238,84.0464956 158.914238,84.7872585 C158.914238,85.538077 159.482986,86.155098 160.210213,86.2250907 L160.348325,86.2317029 L168.952848,86.2317029 L169.120093,86.2219851 C169.83332,86.1385466 170.386935,85.5280214 170.386935,84.7872585 C170.386935,83.9895139 169.744873,83.3428141 168.952848,83.3428141 Z M192.204082,51 C199.823357,51 206,57.176643 206,64.7959184 C206,72.4151937 199.823357,78.5918367 192.204082,78.5918367 C184.584806,78.5918367 178.408163,72.4151937 178.408163,64.7959184 C178.408163,57.176643 184.584806,51 192.204082,51 Z M192.327862,69.7272475 C191.3902,69.7272475 190.630057,70.5167659 190.630057,71.4907076 C190.630057,72.4646493 191.3902,73.2541233 192.327862,73.2541233 C193.265567,73.2541233 194.025709,72.4646493 194.025709,71.4907076 C194.025709,70.5167659 193.265567,69.7272475 192.327862,69.7272475 Z M192.272588,56.5639244 C191.33284,56.5895572 190.702276,57.2394162 190.635644,57.9061774 L190.629792,58.0238929 L191.037468,65.9828571 C191.037468,66.6888529 191.59333,67.2664173 192.27293,67.2664173 C192.909895,67.2664173 193.438443,66.7584806 193.502023,66.1135581 L193.508434,65.9828571 L193.916057,58.0238929 C193.916057,57.3180301 193.097908,56.5569289 192.272588,56.5639244 Z M178.748386,55.3318833 C176.869766,58.005145 175.766903,61.2631005 175.766903,64.7786436 C175.766903,65.4937897 175.812541,66.1982765 175.901063,66.8893504 L156.01353,66.8888889 C155.795949,66.8888889 155.584172,66.8187024 155.409658,66.6887553 C154.99622,66.3809006 154.88541,65.8174754 155.133122,65.3803383 L155.202552,65.273906 L161.738125,56.4968742 C162.244346,55.8170376 163.021267,55.3964975 163.860518,55.3398889 L164.055203,55.3333333 L178.748386,55.3318833 Z" id="形状结合" fill="url(#linearGradient-7)" opacity="0.6" mask="url(#mask-6)"></path>
            </g>
        </g>
    </g>
</svg>