<?xml version="1.0" encoding="UTF-8"?>
<svg width="200px" height="100px" viewBox="0 0 200 100" version="1.1" xmlns="http://www.w3.org/2000/svg" xmlns:xlink="http://www.w3.org/1999/xlink">
    <title>BG-咨询单</title>
    <defs>
        <rect id="path-1" x="0" y="0" width="200" height="100" rx="4"></rect>
        <linearGradient x1="42.7761414%" y1="45.9352583%" x2="61.5622808%" y2="74.8333758%" id="linearGradient-3">
            <stop stop-color="#FFEEDF" offset="0%"></stop>
            <stop stop-color="#FFFFFF" stop-opacity="0" offset="100%"></stop>
        </linearGradient>
        <linearGradient x1="50%" y1="23.3579157%" x2="86.1307301%" y2="67.9413412%" id="linearGradient-4">
            <stop stop-color="#FFFFFF" stop-opacity="0" offset="0%"></stop>
            <stop stop-color="#FFEEDF" stop-opacity="0.993712607" offset="99.3712607%"></stop>
            <stop stop-color="#FFEEDE" offset="100%"></stop>
        </linearGradient>
        <path d="M143,42 L195,42 C197.209139,42 199,43.790861 199,46 L199,96 C199,97.6568542 197.656854,99 196,99 L143,99 C140.790861,99 139,97.209139 139,95 L139,46 C139,43.790861 140.790861,42 143,42 Z" id="path-5"></path>
        <linearGradient x1="0.536197928%" y1="-11.2319838%" x2="76.6763037%" y2="87.9097921%" id="linearGradient-7">
            <stop stop-color="#FFC088" offset="0%"></stop>
            <stop stop-color="#F4821F" offset="100%"></stop>
        </linearGradient>
    </defs>
    <g id="重塑项目-11.12" stroke="none" stroke-width="1" fill="none" fill-rule="evenodd">
        <g id="10.状态" transform="translate(-1168.000000, -293.000000)">
            <g id="编组" transform="translate(266.000000, 293.000000)">
                <g id="BG-咨询单" transform="translate(902.000000, 0.000000)">
                    <mask id="mask-2" fill="white">
                        <use xlink:href="#path-1"></use>
                    </mask>
                    <rect stroke="#EEEEEE" x="0.5" y="0.5" width="199" height="99" rx="4"></rect>
                    <path d="M42.4379259,111.322027 C31.2514009,71.9402955 42.9146982,57.3748705 77.4278179,67.6257523 C129.197497,83.002075 165.628672,73.1330307 158.330097,49.9639187 C151.031522,26.7948067 168.556138,3.15583825 185.996557,-7.58914742 C197.623502,-14.7524712 204.667437,-11.8016095 207.128362,1.26343779 L207.128362,111.322027" id="路径-6" fill="url(#linearGradient-3)" opacity="0.4" mask="url(#mask-2)"></path>
                    <path d="M-23.9904083,65.1744782 C-13.7824105,40.106962 5.58515169,32.8133182 34.1122782,43.2935467 C76.902968,59.0138894 115.277915,31.0372628 126.171207,9.55416641 C137.064499,-11.9289299 132.439624,-37.3903775 112.910911,-43.7557394 C93.382198,-50.1211012 -19.2130062,-54.8087323 -19.2130062,-27.4013044 C-19.2130062,-9.12968573 -20.8054736,21.7289085 -23.9904083,65.1744782 Z" id="路径-7" fill="url(#linearGradient-4)" opacity="0.4" mask="url(#mask-2)" transform="translate(53.971359, 8.265502) rotate(30.000000) translate(-53.971359, -8.265502) "></path>
                    <mask id="mask-6" fill="white">
                        <use xlink:href="#path-5"></use>
                    </mask>
                    <g id="蒙版"></g>
                    <path d="M178.5,52 C193.687831,52 206,64.3121694 206,79.5 C206,94.6878306 193.687831,107 178.5,107 L178.5,107 L160.354451,107 C159.746938,107 159.254451,106.507513 159.254451,105.9 L159.254451,105.9 L159.254451,99.1433027 C154.160595,94.1519542 151,87.1950754 151,79.5 C151,64.3121694 163.312169,52 178.5,52 Z M164.75,76.75 C163.231217,76.75 162,77.9812169 162,79.5 C162,81.0187831 163.231217,82.25 164.75,82.25 C166.268783,82.25 167.5,81.0187831 167.5,79.5 C167.5,77.9812169 166.268783,76.75 164.75,76.75 Z M178.5,76.75 C176.981217,76.75 175.75,77.9812169 175.75,79.5 C175.75,81.0187831 176.981217,82.25 178.5,82.25 C180.018783,82.25 181.25,81.0187831 181.25,79.5 C181.25,77.9812169 180.018783,76.75 178.5,76.75 Z M192.25,76.75 C190.731217,76.75 189.5,77.9812169 189.5,79.5 C189.5,81.0187831 190.731217,82.25 192.25,82.25 C193.768783,82.25 195,81.0187831 195,79.5 C195,77.9812169 193.768783,76.75 192.25,76.75 Z" id="形状结合" fill="url(#linearGradient-7)" opacity="0.6" mask="url(#mask-6)"></path>
                </g>
            </g>
        </g>
    </g>
</svg>