<?xml version="1.0" encoding="UTF-8"?>
<svg width="200px" height="100px" viewBox="0 0 200 100" version="1.1" xmlns="http://www.w3.org/2000/svg" xmlns:xlink="http://www.w3.org/1999/xlink">
    <title>BG-结算单</title>
    <defs>
        <rect id="path-1" x="0" y="0" width="200" height="100" rx="4"></rect>
        <linearGradient x1="42.7761414%" y1="45.9352583%" x2="61.5622808%" y2="74.8333758%" id="linearGradient-3">
            <stop stop-color="#E6FFF5" offset="0%"></stop>
            <stop stop-color="#FFFFFF" stop-opacity="0" offset="100%"></stop>
        </linearGradient>
        <linearGradient x1="50%" y1="23.3579157%" x2="85.17213%" y2="64.8309737%" id="linearGradient-4">
            <stop stop-color="#FFFFFF" stop-opacity="0" offset="0%"></stop>
            <stop stop-color="#E6FFF5" offset="100%"></stop>
        </linearGradient>
        <path d="M143,42 L195,42 C197.209139,42 199,43.790861 199,46 L199,96 C199,97.6568542 197.656854,99 196,99 L143,99 C140.790861,99 139,97.209139 139,95 L139,46 C139,43.790861 140.790861,42 143,42 Z" id="path-5"></path>
        <linearGradient x1="100%" y1="100%" x2="0%" y2="0%" id="linearGradient-7">
            <stop stop-color="#26A872" offset="0%"></stop>
            <stop stop-color="#49D79C" offset="100%"></stop>
        </linearGradient>
    </defs>
    <g id="重塑项目-11.12" stroke="none" stroke-width="1" fill="none" fill-rule="evenodd">
        <g id="10.状态" transform="translate(-1392.000000, -293.000000)">
            <g id="编组" transform="translate(266.000000, 293.000000)">
                <g id="BG-结算单" transform="translate(1126.000000, 0.000000)">
                    <mask id="mask-2" fill="white">
                        <use xlink:href="#path-1"></use>
                    </mask>
                    <rect stroke="#EEEEEE" x="0.5" y="0.5" width="199" height="99" rx="4"></rect>
                    <path d="M38.4379259,117.322027 C27.2514009,77.9402955 38.9146982,63.3748705 73.4278179,73.6257523 C125.197497,89.002075 161.628672,79.1330307 154.330097,55.9639187 C147.031522,32.7948067 164.556138,9.15583825 181.996557,-1.58914742 C193.623502,-8.75247121 200.667437,-5.80160947 203.128362,7.26343779 L203.128362,117.322027" id="路径-6" fill="url(#linearGradient-3)" opacity="0.4" mask="url(#mask-2)"></path>
                    <path d="M-27.9904083,71.1744782 C-17.7824105,46.106962 1.58515169,38.8133182 30.1122782,49.2935467 C72.902968,65.0138894 111.277915,37.0372628 122.171207,15.5541664 C133.064499,-5.92892994 128.439624,-31.3903775 108.910911,-37.7557394 C89.382198,-44.1211012 -23.2130062,-48.8087323 -23.2130062,-21.4013044 C-23.2130062,-3.12968573 -24.8054736,27.7289085 -27.9904083,71.1744782 Z" id="路径-7" fill="url(#linearGradient-4)" opacity="0.4" mask="url(#mask-2)" transform="translate(49.971359, 14.265502) rotate(30.000000) translate(-49.971359, -14.265502) "></path>
                    <mask id="mask-6" fill="white">
                        <use xlink:href="#path-5"></use>
                    </mask>
                    <g id="蒙版"></g>
                    <path d="M179.5,51 C194.687831,51 207,63.3121694 207,78.5 C207,93.6878306 194.687831,106 179.5,106 C164.312169,106 152,93.6878306 152,78.5 C152,63.3121694 164.312169,51 179.5,51 Z M173.276186,65.9240332 L167.596676,65.9240332 L174.685993,78.5802832 L169.288445,78.5802832 L169.288445,81.0713546 L176.05552,81.0713546 L176.619443,82.0356404 L176.619443,84.1651046 L169.288445,84.1651046 L169.288445,86.6561761 L176.619443,86.6561761 L176.619443,92.9240332 L181.533629,92.9240332 L181.533629,86.6561761 L188.824347,86.6561761 L188.824347,84.1651046 L181.533629,84.1651046 L181.533629,81.9954618 L182.178112,81.0713546 L188.824347,81.0713546 L188.824347,78.5802832 L183.507359,78.5802832 L190.596676,65.9240332 L184.997727,65.9240332 L179.197377,77.6963546 L173.276186,65.9240332 Z" id="形状结合" fill="url(#linearGradient-7)" opacity="0.5" mask="url(#mask-6)"></path>
                </g>
            </g>
        </g>
    </g>
</svg>