<svg xmlns="http://www.w3.org/2000/svg" xmlns:xlink="http://www.w3.org/1999/xlink" viewBox="0 0 996 794.63"><defs><linearGradient id="a" x1="180.14" y1="681.05" x2="843.47" y2="17.72" gradientUnits="userSpaceOnUse"><stop offset="0" stop-color="#e58200"/><stop offset="0.21" stop-color="#e78a09"/><stop offset="0.54" stop-color="#eba121"/><stop offset="0.97" stop-color="#f1c649"/><stop offset="1" stop-color="#f2c94c"/></linearGradient></defs><path d="M880.52,387.23c40-19.16,74.56-45.32,102-80.39,29.53-37.8,36.08-79.47,15.78-123C978.75,142,944.83,118.79,898,115.08c-14.49-1.15-20.87,4.5-23,18.51-11.69,75-54.59,119.14-131.71,134.56-12.77,3.74-28,4.24-43,4.26-126.24.23-252.5.64-378.74-.21-74.42-.5-161-35.28-173.45-140.68C146.24,116,136,113.62,123.37,115,77.86,120.16,44,142.77,25.18,184.67,6,227.24,11.75,267.83,40.14,305c27.41,35.85,62.15,62.58,102.77,81.87,6.55,3.11,14.08,5.24,14.48,14.37s-7.22,11.79-13.2,15.66c-26.2,16.92-52.54,33.62-78.57,50.78C46.82,480,41.26,501.21,50.92,521c23.09,47.34,77,73.66,129.11,63.57,21-4.08,38.61-14.77,55.83-26.6,5.54-3.81,11.22-7.83,18.6-3.45,6.77,4,8,9.7,7.7,17.2-.63,15.54,0,31.14-.19,46.71-.52,48,.58,95.38,20.5,140.66,49.33,112.07,169.71,169,281.76,144.63C677,879.17,759.64,780.64,761.06,663.88c.37-30.65.08-61.31.27-92,.12-18.12,9.9-23.82,25-14.77,3.12,1.86,6.07,4,9.1,6,63,42,131.42,28.06,172.95-35.28,15.72-24,11.6-45.57-12.42-61.5-25.58-17-51.62-33.22-77.28-50.06C860.49,404.39,861,396.57,880.52,387.23Z" transform="translate(-14 -114.69)" style="fill:url(#a)"/><circle cx="376.35" cy="347.9" r="51.88" style="fill:#fff"/><circle cx="619.65" cy="347.9" r="51.88" style="fill:#fff"/><path d="M363.65,624.76H659.37v87.92Q657.76,827.78,512.31,831q-147.09-3.22-148.66-118.29Zm259,41.56H402v40q0,83.09,110.3,83.12t110.3-83.12Z" transform="translate(-14 -114.69)" style="fill:#fff"/><path d="M480,758v-59.4q.4-7.73,7.73-8.13a8.92,8.92,0,0,1,6.51,3.66L527.17,738h.41V698.57q.4-7.73,7.73-8.13,7.32.4,7.73,8.13V758q-.4,7.34-7.73,7.33a8.15,8.15,0,0,1-6.51-2.85l-32.95-43.53h-.41V758q-.4,7.34-7.73,7.33T480,758Z" transform="translate(-14 -114.69)" style="fill:#fff"/></svg>